P3
16 1
255
0 0 0 18 31 0 59 0 18 51 51 51 69 82 51 0 13 85 110 51 69 85 85 85 103 116 85 
119 119 119 144 85 103 137 150 119 51 64 136 85 98 170 178 119 137 119 132 204 
